<?xml version="1.0" encoding="UTF-8"?>
<svg fill="#111111" width="100pt" height="100pt" version="1.1" viewBox="0 0 100 100" xmlns="http://www.w3.org/2000/svg">
 <path d="m7.2617 38.527 41.117-23.738c1.0312-0.59375 2.2148-0.59375 3.2461 0l14.922 8.6172-5.8438 5.8438-9.8906-5.7109c-0.51562-0.29687-1.1055-0.29687-1.6211 0l-37.938 21.902c-1.2031 0.69531-2.7578 0.27734-3.4531-0.92578l-1.4648-2.5352c-0.69531-1.2031-0.27734-2.7578 0.92578-3.4531zm45.699 2.0938c-0.74219 0.74219-1.2305 1.5195-1.5781 2.5039l-2.0664 5.8477c-0.17578 0.5-0.058594 1.0195 0.31641 1.3906 0.375 0.375 0.89453 0.49219 1.3906 0.31641l5.8477-2.0664c0.98828-0.34766 1.7656-0.83984 2.5039-1.5781l27.727-27.727-6.418-6.418zm29.543-29.543 4.1016-4.1016c1.3047-1.3047 3.4297-1.3047 4.7344 0l1.6836 1.6836c1.3047 1.3047 1.3047 3.4297 0 4.7344l-4.1016 4.1016zm-3.2188 19.684 13.453 7.7656c1.2031 0.69531 1.6211 2.25 0.92578 3.4531l-1.4648 2.5352c-0.69531 1.2031-2.2461 1.6211-3.4531 0.92578l-15.305-8.8359zm-60.426 63.238h18.777v-30.445c0-1.3086 1.0664-2.375 2.375-2.375h19.977c1.3086 0 2.375 1.0664 2.375 2.375v30.445h18.773c1.3086 0 2.375-1.0664 2.375-2.375v-46.242l-11.949-6.8984-10.367 10.371c-1.0078 1.0078-2.1211 1.7109-3.4648 2.1836l-5.8477 2.0664c-1.4297 0.50391-2.9883 0.15234-4.0625-0.92188-1.0703-1.0742-1.4258-2.6328-0.92187-4.0625l2.0664-5.8477c0.47266-1.3438 1.1758-2.457 2.1836-3.4648l7.6758-7.6758-8.8242-5.0977-33.512 19.348v46.242c0 1.3086 1.0664 2.375 2.3711 2.375z" fill-rule="evenodd"/>
</svg>
