<?xml version="1.0" encoding="UTF-8"?>
<svg fill="#111111" width="100pt" height="100pt" version="1.1" viewBox="0 0 100 100" xmlns="http://www.w3.org/2000/svg">
 <path d="m92.406 43.406c-3.9062-6.3867-9.1992-11.77-13.887-17.582-2.7305-3.1992-5.3438-6.4492-8.1367-9.6133-3.082-3.4688-6.3867-7.0625-10.707-8.9805-3.375-1.4375-7.832-1.8945-10.781 0.67578-1.3555 1.4375-2.1875 3.4492-1.8008 5.4258 1.1367 5.8125 5.457 10.301 9.0742 14.762 2.4805 2.8555 4.918 5.7188 7.418 8.543 1.2305 1.3242 2.418 2.8633 3.918 3.9375-0.10547 0.29297-0.082031 0.625 0.074219 0.90625-11.574 0.65625-23.188 0.4375-34.77 0.57422-5.6875 0.125-11.438 0-17.051 1.043-3.6875 0.69922-10.781 3.4375-10.312 8.043 0.58203 4.6758 4.6133 8.2305 9.0742 9.2305 6.832 1.582 13.98 0.78125 20.926 0.51953 11.301-0.66797 22.418-1.1445 33.738-1.9883-4.332 3.5742-8.6758 7.1367-13.105 10.594-3.0625 2.4062-6.168 4.793-8.8438 7.6367-4.082 4.0742-7.4883 12.926-0.6875 16.094 5.3008 2.2305 10.668-1.2383 15.324-3.5508 10.188-5.4883 18.605-13.824 25.699-22.875 5.0742-6.6445 9.9805-15.355 4.8438-23.387z"/>
</svg>
