<?xml version="1.0" encoding="UTF-8"?>
<svg fill="#111111" width="100pt" height="100pt" version="1.1" viewBox="0 0 100 100" xmlns="http://www.w3.org/2000/svg">
 <path d="m50 2.5c-26.23 0-47.5 21.27-47.5 47.5s21.27 47.5 47.5 47.5 47.5-21.27 47.5-47.5-21.27-47.5-47.5-47.5zm22.102 38.66-24.75 24.75c-0.98047 0.98047-2.2617 1.4609-3.5391 1.4609-1.2812 0-2.5586-0.48828-3.5391-1.4609l-12.375-12.371c-1.9492-1.9492-1.9492-5.1211 0-7.0703 1.9492-1.9492 5.1211-1.9492 7.0703 0l8.8398 8.8398 21.211-21.211c1.9492-1.9492 5.1211-1.9492 7.0703 0 1.9609 1.9414 1.9609 5.1133 0.011718 7.0625z"/>
</svg>
