<svg fill="#111111" xmlns="http://www.w3.org/2000/svg" xmlns:xlink="http://www.w3.org/1999/xlink" xml:space="preserve" style="shape-rendering:geometricPrecision;text-rendering:geometricPrecision;image-rendering:optimizeQuality;" viewBox="0 0 0.26074 0.326637" x="0px" y="0px" fill-rule="evenodd" clip-rule="evenodd"><defs><style type="text/css">

    .fil0 {fill:#111111}

  </style></defs><g><path class="fil0" d="M0.0202517 0.0210705c0.0315586,0 0.0631132,0 0.0946757,0l0 0.0625502 -0.0321216 0 0 0.0262083 -0.0625542 0c0,-0.0295862 0,-0.0591723 0,-0.0887585z"></path><polygon class="fil0" points="0.125073,0.0210705 0.187623,0.0210705 0.187623,0.0836208 0.125073,0.0836208 "></polygon><polygon class="fil0" points="0.26074,0.0210705 0.19819,0.0210705 0.19819,0.0836208 0.26074,0.0836208 "></polygon><polygon class="fil0" points="0.0828058,0.119333 0.0202517,0.119333 0.0202517,0.181883 0.0828058,0.181883 "></polygon><polygon class="fil0" points="0.0828058,0.254366 0.0202517,0.254366 0.0202517,0.191816 0.0828058,0.191816 "></polygon><polygon class="fil0" points="0.0828058,0.264087 0.0202517,0.264087 0.0202517,0.326637 0.0828058,0.326637 "></polygon><polygon class="fil0" points="0.189312,0.118695 0.126758,0.118695 0.126758,0.248945 0.189312,0.248945 "></polygon><polygon class="fil0" points="0.26074,0.00754319 0.19819,0.00754319 0.19819,0 0.26074,0 "></polygon><polygon class="fil0" points="0.187631,0.00754319 0.125077,0.00754319 0.125077,0 0.187631,0 "></polygon><polygon class="fil0" points="0.114246,0.00754319 0.0209367,0.00754319 0.0209367,0 0.114246,0 "></polygon><polygon class="fil0" points="-0,0.108987 -0,0.0219091 0.00754319,0.0219091 0.00754319,0.108987 "></polygon><polygon class="fil0" points="0.000177163,0.119333 0.00736603,0.119333 0.00736603,0.181883 0.000177163,0.181883 "></polygon><polygon class="fil0" points="0.000177163,0.191812 0.00736603,0.191812 0.00736603,0.254362 0.000177163,0.254362 "></polygon><polygon class="fil0" points="0.000177163,0.264087 0.00736603,0.264087 0.00736603,0.326637 0.000177163,0.326637 "></polygon></g></svg>
