<svg xmlns="http://www.w3.org/2000/svg" xmlns:xlink="http://www.w3.org/1999/xlink" version="1.1" x="0px" y="0px" viewBox="0 0 100 100" enable-background="new 0 0 100 100" xml:space="preserve"><g><path d="M74.556,40.594c-0.996,1.543-2.734,6.133-3.887,9.439l2.158,6.05c2.744-5.957,6.309-13.379,7.861-15.362   c0.313-0.4,0.654-0.762,1.017-1.084c-1.397-0.625-2.677-0.967-3.81-0.967c-0.049,0-0.088,0-0.137,0.005   C76.372,38.709,75.386,39.3,74.556,40.594z"></path><path d="M24.71,32.264c2.009,0.537,4.29,1.895,5.862,5.088c1.44,2.93,3.14,7.295,4.102,9.859h30.097   c1.025-2.93,2.9-7.955,4.326-10.181c1.494-2.319,3.496-3.848,5.879-4.521c0.41-0.146,0.84-0.269,1.27-0.376   c-0.986-6.861-4.473-11.392-15.811-13.687c-6.222-1.26-14.679-1.26-20.917,0C28.126,20.75,25.362,25.32,24.61,32.235   C24.645,32.245,24.679,32.254,24.71,32.264z"></path><path d="M88.238,45.995c-1.113-0.479-2.168-0.234-2.871,0.669c-0.781,0.996-2.559,4.082-4.571,7.759   c-1.846,3.877-3.838,8.232-5.41,11.773l-0.527,1.182h-4.805H29.708h-4.756l-0.527-1.143c-2.09-4.547-4.903-10.465-7.168-14.972   c-1.245-2.202-2.266-3.906-2.808-4.604c-0.356-0.454-1.357-1.455-2.9-0.811c-0.378,0.161-0.767,0.415-1.167,0.762   C9.976,48.466,10,50.751,10,53.603C10,65.947,17.383,82.5,17.383,82.5h65.181c0,0,7.393-16.553,7.393-28.897   c0-2.495,0.117-4.6-0.034-6.367C89.352,46.64,88.775,46.229,88.238,45.995z"></path><polygon points="34.977,52.255 31.637,62.333 68.14,62.333 64.556,52.255  "></polygon><path d="M26.856,56.083l1.968-5.942c-0.859-2.305-2.654-6.978-4.077-9.878c-0.698-1.421-1.484-1.68-2.159-1.743   c-1.24-0.117-2.822,0.347-4.614,1.274c0.293,0.283,0.576,0.591,0.84,0.928C20.367,42.723,24.029,50.136,26.856,56.083z"></path></g></svg>