<svg xmlns="http://www.w3.org/2000/svg" xmlns:xlink="http://www.w3.org/1999/xlink" version="1.1" x="0px" y="0px" viewBox="0 0 64 64" style="enable-background:new 0 0 64 64;" xml:space="preserve"><path d="M45.27,32.81c0-11.64-6.01-27.85-13.43-27.85c-7.42,0-13.43,16.21-13.43,27.85c0,10.81,5.19,13.87,11.86,14.25  c-0.02,0.44-0.05,0.77-0.07,0.95c-0.17,1.31,0.12,6.31-0.7,7.92c-0.26,0.51-1.19,3.03-2.44,3.1h0.77h7.61c0,0-0.79-0.55-1.29-2.31  c-0.5-1.76-0.92-4.81-0.79-7.57c0.02-0.5,0.02-1.23,0.01-2.08C40.07,46.69,45.27,43.64,45.27,32.81z"></path></svg>