<?xml version="1.0" encoding="UTF-8"?>
<svg fill="#111111" width="100pt" height="100pt" version="1.1" viewBox="0 0 100 100" xmlns="http://www.w3.org/2000/svg">
 <path d="m35.703 47.574 4.7852 0.15625h0.007813c0.089844 0 0.16406 0.074219 0.16406 0.16406v5.3438c0.47266-0.003906 0.94531-0.011719 1.418-0.015625l0.039063-5.5352v-0.019531-0.003907c0.003906-0.035156 0.019531-0.0625 0.042968-0.085937h0.097656l2.8555-0.042969-0.76953 2.0352 2.8867 0.09375h0.007812c0.10547 0 0.19141 0.085938 0.19141 0.19141v3.293h0.71875l0.023437-3.418v-0.082031l0.003906-0.003907v-0.035156l0.019531-0.019531h0.023438l0.003906-0.003906h0.007813l0.007812-0.003907h0.066407l2.832-0.042969-1.8398-4.0859c-0.042969-0.097656 0-0.20703 0.09375-0.25 0.023437-0.011719 0.050781-0.015625 0.074219-0.015625l0.99609-0.058594-1.6094-3.2031c-0.046874-0.09375-0.007812-0.20703 0.085938-0.25391 0.023438-0.011719 0.042969-0.015625 0.066406-0.019531l0.79297-0.074219-1.5273-3.1406c-0.046875-0.09375-0.007812-0.20703 0.085938-0.25391 0.03125-0.015625 0.0625-0.019532 0.09375-0.019532l0.57812-0.015624-1.6289-3.3125-1.6367 3.5234 0.65625-0.003906c0.10547 0 0.19141 0.085937 0.19141 0.1875 0 0.027343-0.003906 0.054687-0.015625 0.078125l-0.80469 1.8281-2.5977-5.1719c-0.039062-0.078125-0.007812-0.17578 0.074219-0.21875 0.019531-0.007813 0.039063-0.015625 0.058594-0.015625l1.457-0.13672-2.5117-5.1562c-0.039062-0.082031-0.003906-0.17969 0.074219-0.21875 0.027344-0.011719 0.054688-0.015625 0.078125-0.015625l1.1406-0.03125-2.8047-5.7109-2.8086 6.0547 1.2578-0.003906c0.089844 0 0.16406 0.070312 0.16406 0.16016 0 0.023437-0.003906 0.046875-0.015625 0.066406l-2.332 5.3008 1.2617 0.023438c0.089844 0 0.16016 0.074219 0.16016 0.16406 0 0.023438-0.007812 0.046876-0.015624 0.066407l-2.5195 5.4805 1.9961-0.070313c0.089844-0.003906 0.16406 0.066406 0.16797 0.15625 0 0.023437-0.003907 0.042969-0.011719 0.0625l-2.4375 6.4336zm8.3516-7.0078c0.019531-0.007812 0.042968-0.015625 0.0625-0.015625l1.7031-0.10156-0.57031 1.293 0.66406 0.011718c0.10547 0.003906 0.1875 0.089844 0.1875 0.19531 0 0.027343-0.007812 0.054687-0.019531 0.078125l-0.78125 1.6992-1.3281-2.9492c-0.035156-0.082032 0-0.17969 0.082032-0.21484zm-22.449 6.6133c0.007812-0.019532 0.011719-0.039063 0.011719-0.0625-0.003907-0.089844-0.078126-0.16016-0.16797-0.15625l-0.95312 0.035156 1.3047-2.8359c0.007813-0.019531 0.015625-0.042968 0.015625-0.066406 0-0.089844-0.070312-0.16406-0.16016-0.16406l-0.56641-0.011719 1.2109-2.75c0.007813-0.019531 0.015625-0.042969 0.015625-0.066407 0-0.089843-0.074218-0.16016-0.16406-0.16016l-0.55859 0.003906 1.3945-3.0078 1.3906 2.8281-0.49219 0.011719c-0.027344 0-0.054688 0.003906-0.078125 0.015625-0.082032 0.039062-0.11328 0.13672-0.074219 0.21875l1.3047 2.6797-0.67578 0.0625c-0.019531 0-0.039062 0.007813-0.058593 0.015625-0.078126 0.039063-0.11328 0.13672-0.074219 0.21875l1.3711 2.7305-0.84766 0.050781c-0.023437 0-0.042968 0.003907-0.0625 0.015625-0.082031 0.035156-0.11719 0.13281-0.082031 0.21484l1.5703 3.4844-2.418 0.039063h-0.09375c-0.023438 0.023437-0.039063 0.054687-0.042969 0.085937v0.003906 0.019531l-0.019531 2.8984-0.61328 0.015625v-2.8047c0-0.089844-0.074219-0.16406-0.16406-0.16406h-0.007813l-2.4648-0.078125 1.2734-3.3633zm67.434 12.137c-0.76562 1.3594-2.1875 2.8789-4.1133 4.4336-1.5625 1.2578-3.4531 2.5391-5.5938 3.7812-5.9141 0.050781-12.535-0.27734-18.449-0.79297-6.5508-0.57031-12.227-1.3711-15.102-2.1367-3.5352-0.94141-4.8086-1.7227-4.6289-2.4023 0.35547-1.3359 5.8281-2.4961 11.188-3.6289 4.875-1.0312 9.6523-2.043 10.562-3.25 0.11328-0.15234 0.19141-0.30469 0.22656-0.45703 0.058594-0.25781 0-0.50781-0.20312-0.73047-0.18359-0.19922-0.48438-0.37891-0.92578-0.52344-0.070312-0.023437-0.14062-0.042969-0.21875-0.066406 1.4062 0.015625 2.8047 0.035156 4.1875 0.054687h0.015625 0.011719c5.9453 0.09375 11.672 0.24609 17.195 0.45703 3.3086 0.125 5.2383 0.82422 6.043 1.8984 0.66016 0.88281 0.54688 2.043-0.19531 3.3633zm-25.523-9.0938 2.4648 0.078125h0.007812c0.089844 0 0.16406 0.074219 0.16406 0.16406v2.8125l0.61328 0.011718 0.019531-2.9297v-0.019531-0.003906c0.003906-0.035157 0.019532-0.0625 0.042969-0.085938h0.10156l2.418-0.039062-0.65625-1.4531 1.9805 0.0625h0.007813c0.089843 0 0.16406 0.074219 0.16406 0.16406v4.3789c0.36719-0.007812 0.73438-0.015625 1.1016-0.023437l0.03125-4.5234v-0.019531-0.003906c0.003907-0.035157 0.019532-0.0625 0.042969-0.085938h0.10156l3.8086-0.058593-2.4414-5.4219c-0.035156-0.082031 0-0.17969 0.082031-0.21484 0.019532-0.007813 0.042969-0.015625 0.0625-0.015625l1.4219-0.082032-2.1445-4.2734c-0.039062-0.078125-0.007812-0.17578 0.074219-0.21875 0.019531-0.007813 0.039063-0.015625 0.058594-0.015625l1.1523-0.10938-2.0391-4.1875c-0.039062-0.082031-0.003906-0.17969 0.074219-0.21875 0.027343-0.011719 0.054687-0.015625 0.078125-0.015625l0.88672-0.023438-2.25-4.5781-2.2539 4.8594 0.98438-0.003906c0.089844 0 0.16406 0.070313 0.16406 0.16016 0 0.023438-0.003906 0.046876-0.015625 0.066407l-1.8906 4.3008 0.98828 0.019531c0.089844 0 0.16016 0.074219 0.16016 0.16406 0 0.023437-0.007812 0.046875-0.015625 0.066406l-1.5 3.2656-0.67188-1.3828c-0.039062-0.082031-0.003906-0.17969 0.074219-0.21875 0.027344-0.011718 0.054688-0.015624 0.078125-0.015624l0.49219-0.011719-1.3906-2.8281-1.3945 3.0078 0.55859-0.003906c0.089844 0 0.16406 0.070312 0.16406 0.16016 0 0.023438-0.003906 0.046875-0.015624 0.066406l-1.2109 2.75 0.56641 0.011719c0.089844 0 0.16016 0.074219 0.16016 0.16406 0 0.023437-0.007812 0.046875-0.015624 0.066406l-1.3047 2.8359 0.95312-0.035157c0.089844-0.003906 0.16406 0.066407 0.16797 0.15625 0 0.023438-0.003906 0.042969-0.011719 0.0625l-1.2734 3.3633zm5.1172-7.0312c0.089844-0.003906 0.16406 0.066406 0.16797 0.15625 0 0.023438-0.003906 0.042969-0.011719 0.0625l-0.64844 1.707-0.73047-1.457c-0.039062-0.078125-0.007812-0.17578 0.074219-0.21875 0.019531-0.007812 0.039063-0.015625 0.058594-0.015625l0.67578-0.0625-0.074219-0.15625 0.49219-0.015625zm-24.758 29.719c4.5352 1.0273 9.9766 1.8633 16.137 2.0938-3.9375 0.86719-7.9648 1.3594-11.883 1.3164-11.914-0.13672-26.188-6.2188-33.32-12.031-1.9023-1.5508-3.2891-3.0781-3.9844-4.4609-0.67578-1.3438-0.68359-2.5508 0.14062-3.5 1.1328-1.3047 3.8086-2.1641 8.4531-2.3047 1.1289-0.035157 2.2539-0.066407 3.3711-0.097657h0.007813 0.019531c6.0547-0.16797 11.926-0.28516 17.617-0.35547 0.019531 0.007813 0.039062 0.011719 0.058594 0.011719 0.023437 0 0.042968-0.003906 0.0625-0.011719 3.2578-0.039062 6.4609-0.0625 9.6055-0.066406h0.011719 0.011719c0.94531 0 1.8867-0.003906 2.8203 0h0.011719c2.1367 0 3.3242 0.10547 3.832 0.27344 0.15234 0.050781 0.21094 0.085937 0.19922 0.10547-0.074219 0.10547-0.31641 0.23438-0.67578 0.375-1.2539 0.48828-3.8047 1.0312-5.9648 1.3594-0.33594 0.050781-0.78125 0.10937-1.3359 0.18359-5.1758 0.69531-19.734 2.6562-22.477 6.7188-1.0039 1.4883-0.49219 3.2266 2.4922 5.2383 0.87109 0.58594 6.2188 3.2227 14.781 5.1641zm-15.414-29.48c0.007812-0.019532 0.011718-0.039063 0.011718-0.0625-0.003906-0.089844-0.078125-0.16016-0.16797-0.15625l-1.5859 0.054687 2.043-4.4414c0.007812-0.019531 0.015625-0.042969 0.015625-0.066407 0-0.089843-0.070313-0.16406-0.16016-0.16406l-0.98828-0.019531 1.8906-4.3008c0.007813-0.019532 0.015625-0.042969 0.015625-0.066407 0-0.089843-0.074218-0.16016-0.16406-0.16016l-0.98438 0.003906 2.2539-4.8594 2.25 4.5781-0.88672 0.023438c-0.027344 0-0.054687 0.003906-0.078125 0.015625-0.082031 0.039062-0.11328 0.13672-0.074219 0.21875l2.0391 4.1875-1.1523 0.10938c-0.019531 0-0.039062 0.007812-0.058593 0.015625-0.078126 0.039062-0.11328 0.13672-0.074219 0.21875l2.1445 4.2734-1.4219 0.082031c-0.023437 0-0.042969 0.003907-0.0625 0.015626-0.082031 0.035156-0.11719 0.13281-0.082031 0.21484l2.4414 5.4219-3.8086 0.058594h-0.09375c-0.023437 0.023438-0.039062 0.054688-0.042968 0.085938v0.003906 0.019531l-0.03125 4.5234c-0.36719 0.007813-0.73438 0.015626-1.1016 0.023438v-4.3789c0-0.089844-0.074219-0.16406-0.16406-0.16406h-0.007812l-3.875-0.125 1.9805-5.2305z" fill-rule="evenodd"/>
</svg>
