<?xml version="1.0" encoding="UTF-8"?>
<svg fill="#111111" width="100pt" height="100pt" version="1.1" viewBox="0 0 100 100" xmlns="http://www.w3.org/2000/svg">
 <path d="m91.578 24.738v-0.20703c-0.27734-0.69922-0.92188-1.1797-1.668-1.25-5.5234-0.51172-11.074-0.66797-16.621-0.46094-7.0898 0.39844-14.195 0.42578-21.289 0.089844-3.2383-0.10156-6.5898-0.19922-9.8789-0.23047-2.4883 0-5 0.19141-7.3281 0.37891h-0.003907c-2.7812 0.29688-5.582 0.40234-8.3789 0.32031l-2.2812-0.14062c-3.3281-0.21094-8.9102-0.55859-13.781-0.55859h0.003906c-0.17578 0-0.34766 0.027343-0.51172 0.082031h-0.10938l-0.19922 0.058593-0.19922 0.12109-0.089843 0.058594h-0.003907c-0.13672 0.097656-0.26562 0.21094-0.37891 0.33984l-0.058594 0.089844c-0.09375 0.12109-0.17188 0.25-0.23047 0.39062v0.058594c0.003907 0.027344 0.003907 0.054688 0 0.082032-0.73828 2.1016-0.42187 6.6289 0.078126 12.328 0.12891 1.5195 0.23828 2.8398 0.26172 3.5312 0.070313 3.2812 0.12109 6.5703 0.14062 9.7695 0 6.4609-0.050781 16.719-0.30078 24.512-0.12109 0.44531-0.12109 0.91797 0 1.3672 0.023438 0.082031 0.050781 0.16406 0.078125 0.24219-0.003906 0.027343-0.003906 0.058593 0 0.089843 0.046875 0.097657 0.097656 0.19141 0.16016 0.27734 0.042969 0.066406 0.085938 0.13281 0.13281 0.19141l0.21875 0.21094 0.19141 0.14844h0.058594c0.0625 0.035156 0.13281 0.066406 0.19922 0.089844l0.21094 0.28125c0.10156 0.027344 0.20703 0.046875 0.30859 0.058594h0.19141c0.28125 0 4.9492 0.25 9.8398 0.25 2.2383 0 4.5391 0 6.4805-0.19922 7.0547-0.39844 14.121-0.4375 21.18-0.10938 3.2383 0.10156 6.5898 0.19922 9.8789 0.23047 2.4883 0 5-0.17969 7.3203-0.37891 2.7891-0.28906 5.5898-0.39844 8.3906-0.32031l2.2695 0.14062c3.3281 0.21094 8.9102 0.55859 13.781 0.55859 0.19531 0 0.39062-0.03125 0.57812-0.089844l0.23828-0.10938h0.003907c0.09375-0.035156 0.18359-0.078125 0.26953-0.13281l0.089843-0.070313c0.11328-0.085937 0.21875-0.18359 0.32031-0.28906l0.10156-0.14844h-0.003907c0.078125-0.097656 0.14062-0.20703 0.19141-0.32031 0.003906-0.027343 0.003906-0.054687 0-0.082031 0.003906-0.035156 0.003906-0.070312 0-0.10938 0.039062-0.11328 0.0625-0.23047 0.082031-0.34766v-0.19141-0.089844c0-4.4688 0.078125-10 0.12891-15.5s0.10156-11 0.12891-15.512c0.03125-4.5078 0.23047-13.918 0.23047-18.238 0-0.45312-0.14844-0.89844-0.42188-1.2617zm-26.668 48.152c-2.2891 0.19141-4.6797 0.39062-7 0.37109-3.25 0-6.5703-0.12891-9.7891-0.23047-7.2109-0.33984-14.434-0.30078-21.641 0.10938-2.6719 0.19141-6.1094 0.19922-9.1094 0.14844 3.1797-2.0586 6.3477-4.2891 9.6289-6.668 4.8086-3.4414 9.7383-7 14.859-9.9297 2.5273 1.5703 5.4102 2.4922 8.3789 2.6797h0.41016c2.6523-0.23828 5.2109-1.0898 7.4727-2.4922 7.3086 5.6992 14.82 11.543 22.688 16.121-1.7695-0.089844-3.3906-0.19141-4.6719-0.28125-1-0.058594-1.7695-0.10938-2.3203-0.12891h0.003906c-2.9727-0.09375-5.9492 0.007812-8.9102 0.30078zm-29.832-45.84c2.3008-0.19141 4.6914-0.37891 7-0.37109 3.2383 0 6.5703 0.12891 9.7891 0.23047h0.003906c7.2109 0.33984 14.434 0.30078 21.641-0.10938 4.1367-0.17969 8.2852-0.11328 12.418 0.19922-1.1289 1-2.5586 2.0508-3.6797 2.9102-1.3711 1-2.7812 2.1211-4 3.1484-4 3.3516-7.5391 6.8008-11 10.129s-7 6.6914-10.82 10v0.003906c-1.7812 1.2305-3.8438 1.9883-6 2.207-2.6523-0.16016-5.1992-1.0898-7.3281-2.6797-9.4688-8.3516-18.289-16.75-27.73-25.891 3.2188 0.10938 6.3281 0.30859 8.4805 0.44922 1 0.058594 1.7695 0.10938 2.3281 0.12891v0.003906c2.9727 0.074219 5.9453-0.046875 8.8984-0.35938z"/>
</svg>
