<?xml version="1.0" encoding="UTF-8"?>
<svg fill="#111111" width="100pt" height="100pt" version="1.1" viewBox="0 0 100 100" xmlns="http://www.w3.org/2000/svg">
 <path d="m77.031 61.531c-3.6719-3.3438-9.3125-3.2188-12.812 0.29688l-3.3125 3.3125c-1.875 1.875-4.8594 2.0469-6.9531 0.40625-7.2188-5.7188-13.781-12.281-19.5-19.5-1.6562-2.0781-1.4844-5.0625 0.40625-6.9531l3.3125-3.3125c3.5156-3.5156 3.6406-9.1406 0.29688-12.812l-12.891-14.172c-1.3281-1.4531-3.1406-2.2812-5.1094-2.3281-1.9688-0.03125-3.8281 0.70312-5.2188 2.0938l-2.625 2.625c-2.6094 2.6094-4.6406 5.8281-5.8594 9.2969-4.6094 13.031-1.2656 27.781 8.5156 37.562l26.688 26.688c6.8594 6.8594 16.172 10.547 25.609 10.547 4.0156 0 8.0469-0.67188 11.938-2.0469 3.4844-1.2344 6.6875-3.25 9.2969-5.8594l2.625-2.625c1.3906-1.3906 2.1406-3.25 2.0938-5.2188s-0.875-3.7812-2.3281-5.1094z"/>
 <path d="m53.922 33.75c6.7969 0 12.328 5.5312 12.328 12.328 0 0.85938 0.70312 1.5625 1.5625 1.5625s1.5625-0.70312 1.5625-1.5625c0-8.5156-6.9375-15.453-15.453-15.453-0.85938 0-1.5625 0.70312-1.5625 1.5625s0.70312 1.5625 1.5625 1.5625z"/>
 <path d="m53.922 21.266c13.672 0 24.812 11.125 24.812 24.812 0 0.85938 0.70312 1.5625 1.5625 1.5625s1.5625-0.70312 1.5625-1.5625c0-15.406-12.531-27.938-27.938-27.938-0.85938 0-1.5625 0.70312-1.5625 1.5625s0.70312 1.5625 1.5625 1.5625z"/>
 <path d="m53.922 4.6875c-0.85938 0-1.5625 0.70312-1.5625 1.5625s0.70312 1.5625 1.5625 1.5625c21.094 0 38.266 17.156 38.266 38.266 0 0.85938 0.70312 1.5625 1.5625 1.5625s1.5625-0.70312 1.5625-1.5625c0-22.812-18.562-41.391-41.391-41.391z"/>
</svg>
