<?xml version="1.0" encoding="UTF-8"?>
<svg width="100pt" height="100pt" version="1.1" viewBox="0 0 100 100" xmlns="http://www.w3.org/2000/svg">
 <path d="m89.699 79.699-12.598-15.898c-2.6016-3.3008-7.3984-3.8984-10.699-1.3008-2.1992 1.6992-4.5 3.3984-6.6992 5.1016-2.6016 2-6.3008 1.8008-8.8008-0.39844-2.8008-2.5-5.8008-5.5-8.6992-8.8984-3.8008-4.5-6.8984-8.8984-9.3008-12.898-1.8008-3-1.1016-7 1.6992-9.1016l6.6016-4.8984c3.5-2.6016 4.1016-7.6016 1.3984-11l-11.402-14.508c-3.1992-3.8984-8.8984-4.5-12.699-1.3984-0.69922 0.60156-1.3984 1.1016-2.1016 1.6992-4 3.1992-6.6016 7.8984-7.1992 13-2.8008 21.699 9.3984 39.5 15.102 46.801 3.8984 5.1992 9.6992 11.602 17.801 17.699 8.8008 6.6016 17.602 10.602 24.699 13 4.8984 1.6992 10.301 0.89844 14.602-2.1992 2.3008-1.6992 4.6016-3.3984 7-5 3.0977-2.3984 3.6992-6.8008 1.2969-9.8008z"/>
</svg>
