<?xml version="1.0" encoding="UTF-8"?>
<svg fill="#111111" width="100pt" height="100pt" version="1.1" viewBox="0 0 100 100" xmlns="http://www.w3.org/2000/svg">
 <g>
  <path d="m98.625 31.062c-0.88281-0.88281-2.0625-1.375-3.3125-1.375-0.71094 0-1.3984 0.15625-2.0234 0.45312l-0.74219-0.74219c0.76172-2.1328 0.3125-4.5273-1.25-6.2656-4.1875-4.6406-12.504-13.738-13.625-14.867-3.2109-3.2109-5.1445-5.1445-10.48-5.1445h-7.8125c-0.75 0-1.3906 0.53125-1.5312 1.2656s0.25781 1.4688 0.95312 1.7461c0.070313 0.027344 6.4961 2.6562 10.898 7.7109l-4.25 3.5391c-1.3438 1.1211-2.1641 2.7656-2.2422 4.5156s0.58594 3.4648 1.8242 4.7031l11.172 11.172c1.668 1.668 4.0625 2.2344 6.25 1.5625l0.82812 0.82812c-0.29688 0.625-0.45312 1.3125-0.45312 2.0234 0 1.25 0.48828 2.4297 1.375 3.3125 0.88281 0.88281 2.0625 1.375 3.3125 1.375 1.2539 0 2.4297-0.48828 3.3125-1.375l7.8125-7.8125c0.88281-0.88281 1.375-2.0625 1.375-3.3125s-0.48828-2.4297-1.375-3.3125z"/>
  <path d="m63.547 29.555-56.84 56.84c-0.60938 0.60938-0.60938 1.6016 0 2.2109l7.8125 7.8125c0.30469 0.30469 0.70312 0.45703 1.1055 0.45703 0.39844 0 0.79688-0.15234 1.1055-0.45703l56.84-56.84z"/>
  <path d="m78.125 65.625c-1.2227 0-2.4375 0.14062-3.6172 0.42188l-11.492-11.492-4.6875 4.6875 6.8438 6.8438c0.60938 0.60937 0.60938 1.6016 0 2.2109-0.30469 0.30469-0.70312 0.45703-1.1055 0.45703s-0.79688-0.15234-1.1055-0.45703l-6.8438-6.8438-4.6875 4.6875 11.492 11.492c-0.28125 1.1836-0.42188 2.3984-0.42188 3.6172 0 10.223 5.4023 15.625 15.625 15.625 2.4219 0 4.4297-0.20703 6.1406-0.63281 0.52344-0.13281 0.9375-0.51953 1.1094-1.0312 0.16797-0.51172 0.058594-1.0703-0.28516-1.4844l-6.4062-7.6914 4.2344-4.2344 7.6484 6.375c0.41406 0.34375 0.96875 0.45312 1.4805 0.28906 0.50781-0.16406 0.90234-0.57812 1.0312-1.0977 0.45312-1.7578 0.67969-3.8125 0.67969-6.1133 0-10.223-5.4023-15.625-15.625-15.625z"/>
  <path d="m19.242 33.953 17.742 17.742 4.6875-4.6875-13.094-13.094c-0.60938-0.60937-0.60938-1.6016 0-2.2109s1.6016-0.60938 2.2109 0l13.094 13.094 4.6875-4.6875-17.742-17.742c0.28125-1.1836 0.42188-2.3984 0.42188-3.6172 0-10.223-5.4023-15.625-15.625-15.625-2.4219 0-4.4297 0.20703-6.1406 0.63281-0.52344 0.13281-0.9375 0.51953-1.1094 1.0312-0.16797 0.51172-0.058594 1.0703 0.28516 1.4844l6.4062 7.6914-4.2344 4.2344-7.6367-6.3711c-0.41406-0.34375-0.96875-0.45312-1.4805-0.28906-0.50781 0.16406-0.90234 0.57813-1.0312 1.0977-0.45312 1.7578-0.67969 3.8125-0.67969 6.1133 0 10.223 5.4023 15.625 15.625 15.625 1.2227 0 2.4375-0.14062 3.6172-0.42188z"/>
 </g>
</svg>
