<?xml version="1.0" encoding="UTF-8"?>
<svg fill="#111111" width="100pt" height="100pt" version="1.1" viewBox="0 0 100 100" xmlns="http://www.w3.org/2000/svg">
 <path d="m78.219 50.059c2.3398-1.0117 2.3398-4.1406 0-5.1484-14.109-6.0781-23.629-20.391-27.859-34.719-0.82031-2.7891-4.5508-2.7891-5.3711 0-4.2188 14.328-13.762 28.648-27.859 34.719-2.3398 1.0117-2.3398 4.1406 0 5.1484 14.109 6.082 23.641 20.391 27.871 34.723 0.82031 2.7891 4.5508 2.7891 5.3711 0 4.2188-14.332 13.75-28.641 27.848-34.723z"/>
 <path d="m89.891 75.422c-4.2383-2.3594-7.8008-6.75-9.8906-12.121-0.69141-1.7891-3.1992-1.7891-3.8984 0-2.0898 5.3711-5.6484 9.7617-9.8906 12.121-1.4414 0.80078-1.4414 2.8594 0 3.6602 4.2383 2.3594 7.8008 6.75 9.8906 12.121 0.69141 1.7891 3.1992 1.7891 3.8984 0 2.0898-5.3711 5.6484-9.7617 9.8906-12.121 1.4297-0.80078 1.4297-2.8633 0-3.6602z"/>
 <path d="m20.93 31.391c1.6797-4.5391 4.6797-8.25 8.25-10.141 1.0586-0.55859 1.0586-2.1016 0-2.6602-3.5703-1.8984-6.5703-5.6016-8.25-10.141-0.48828-1.3086-2.3594-1.3086-2.8516 0-1.6797 4.5391-4.6797 8.25-8.25 10.141-1.0586 0.55859-1.0586 2.1016 0 2.6602 3.5703 1.8984 6.5703 5.6016 8.25 10.141 0.49219 1.3086 2.3711 1.3086 2.8516 0z"/>
</svg>
