<svg xmlns="http://www.w3.org/2000/svg" viewBox="0 0 32 32" x="0px" y="0px"><title>Magic, Sparkles, Effect</title><g data-name="Layer 2"><path d="M18,11a1,1,0,0,1-1,1,5,5,0,0,0-5,5,1,1,0,0,1-2,0,5,5,0,0,0-5-5,1,1,0,0,1,0-2,5,5,0,0,0,5-5,1,1,0,0,1,2,0,5,5,0,0,0,5,5A1,1,0,0,1,18,11Z"></path><path d="M19,24a1,1,0,0,1-1,1,2,2,0,0,0-2,2,1,1,0,0,1-2,0,2,2,0,0,0-2-2,1,1,0,0,1,0-2,2,2,0,0,0,2-2,1,1,0,0,1,2,0,2,2,0,0,0,2,2A1,1,0,0,1,19,24Z"></path><path d="M28,17a1,1,0,0,1-1,1,4,4,0,0,0-4,4,1,1,0,0,1-2,0,4,4,0,0,0-4-4,1,1,0,0,1,0-2,4,4,0,0,0,4-4,1,1,0,0,1,2,0,4,4,0,0,0,4,4A1,1,0,0,1,28,17Z"></path></g></svg>